<svg width="7" height="12" viewBox="0 0 7 12" fill="none" xmlns="http://www.w3.org/2000/svg">
<path d="M2.01852 5.99543L6.72222 1.50328C6.90741 1.32642 6.99691 1.12009 6.99074 0.884281C6.98457 0.648472 6.88889 0.442141 6.7037 0.265285C6.51852 0.088428 6.30247 0 6.05556 0C5.80864 0 5.59259 0.088428 5.40741 0.265285L0.444444 4.98735C0.296296 5.12884 0.185185 5.28801 0.111111 5.46487C0.037037 5.64172 0 5.81858 0 5.99543C0 6.17229 0.037037 6.34915 0.111111 6.526C0.185185 6.70286 0.296296 6.86203 0.444444 7.00352L5.40741 11.7433C5.59259 11.9201 5.81173 12.0056 6.06482 11.9997C6.3179 11.9938 6.53704 11.9024 6.72222 11.7256C6.90741 11.5487 7 11.3424 7 11.1066C7 10.8708 6.90741 10.6644 6.72222 10.4876L2.01852 5.99543Z" fill="#72787F"/>
</svg>
