<svg width="28" height="28" viewBox="0 0 28 28" fill="none" xmlns="http://www.w3.org/2000/svg">
<g clip-path="url(#clip0_20_3357)">
<g filter="url(#filter0_d_20_3357)">
<path fill-rule="evenodd" clip-rule="evenodd" d="M16.8 3.7319C16.8 2.70097 15.9643 1.86523 14.9333 1.86523H13.0667C12.0357 1.86523 11.2 2.70097 11.2 3.7319V5.03857C11.2 5.34785 10.9493 5.59857 10.64 5.59857H5.6C4.56907 5.59857 3.73333 6.4343 3.73333 7.46523V8.7719C3.73333 9.08118 3.48261 9.3319 3.17333 9.3319H1.86667C0.835737 9.3319 0 10.1676 0 11.1986V15.8652C0 18.5881 1.08166 21.1995 3.00704 23.1249C4.93241 25.0502 7.54378 26.1319 10.2667 26.1319H11.2523C13.8349 26.1311 16.3701 25.438 18.594 24.1248C20.7229 22.8677 22.492 21.0863 23.734 18.9528C23.8366 18.7766 24.0237 18.6652 24.2276 18.6652H27.44C27.7493 18.6652 28 18.4145 28 18.1052V15.8652C28 15.1226 27.705 14.4104 27.1799 13.8853C26.6548 13.3602 25.9426 13.0652 25.2 13.0652H24.8267C24.5174 13.0652 24.2667 12.8145 24.2667 12.5052V12.1319C24.2667 11.3893 23.9717 10.6771 23.4466 10.152C22.9215 9.6269 22.2093 9.3319 21.4667 9.3319H17.36C17.0507 9.3319 16.8 9.08118 16.8 8.7719V3.7319ZM1.86667 12.5052C1.86667 12.8145 2.11739 13.0652 2.42667 13.0652H3.17333C3.48261 13.0652 3.73333 12.8145 3.73333 12.5052V11.7586C3.73333 11.4493 3.48261 11.1986 3.17333 11.1986H2.42667C2.11739 11.1986 1.86667 11.4493 1.86667 11.7586V12.5052ZM5.6 12.5052C5.6 12.8145 5.85072 13.0652 6.16 13.0652H6.90667C7.21595 13.0652 7.46667 12.8145 7.46667 12.5052V11.7586C7.46667 11.4493 7.21595 11.1986 6.90667 11.1986H6.16C5.85072 11.1986 5.6 11.4493 5.6 11.7586V12.5052ZM9.33333 12.5052C9.33333 12.8145 9.58405 13.0652 9.89333 13.0652H10.64C10.9493 13.0652 11.2 12.8145 11.2 12.5052V11.7586C11.2 11.4493 10.9493 11.1986 10.64 11.1986H9.89333C9.58405 11.1986 9.33333 11.4493 9.33333 11.7586V12.5052ZM13.0667 12.5052C13.0667 12.8145 13.3174 13.0652 13.6267 13.0652H14.3733C14.6826 13.0652 14.9333 12.8145 14.9333 12.5052V11.7586C14.9333 11.4493 14.6826 11.1986 14.3733 11.1986H13.6267C13.3174 11.1986 13.0667 11.4493 13.0667 11.7586V12.5052ZM16.8 12.5052C16.8 12.8145 17.0507 13.0652 17.36 13.0652H18.1067C18.4159 13.0652 18.6667 12.8145 18.6667 12.5052V11.7586C18.6667 11.4493 18.4159 11.1986 18.1067 11.1986H17.36C17.0507 11.1986 16.8 11.4493 16.8 11.7586V12.5052ZM14.3733 5.59857C14.6826 5.59857 14.9333 5.34785 14.9333 5.03857V4.2919C14.9333 3.98262 14.6826 3.7319 14.3733 3.7319H13.6267C13.3174 3.7319 13.0667 3.98262 13.0667 4.2919V5.03857C13.0667 5.34785 13.3174 5.59857 13.6267 5.59857H14.3733ZM11.2 8.02523C11.2 7.71596 10.9493 7.46523 10.64 7.46523H9.89333C9.58405 7.46523 9.33333 7.71595 9.33333 8.02523V8.7719C9.33333 9.08118 9.58405 9.3319 9.89333 9.3319H10.64C10.9493 9.3319 11.2 9.08118 11.2 8.7719V8.02523ZM13.6267 9.3319C13.3174 9.3319 13.0667 9.08118 13.0667 8.7719V8.02523C13.0667 7.71596 13.3174 7.46523 13.6267 7.46523H14.3733C14.6826 7.46523 14.9333 7.71595 14.9333 8.02523V8.7719C14.9333 9.08118 14.6826 9.3319 14.3733 9.3319H13.6267ZM6.90667 9.3319C7.21595 9.3319 7.46667 9.08118 7.46667 8.7719V8.02523C7.46667 7.71596 7.21595 7.46523 6.90667 7.46523H6.16C5.85072 7.46523 5.6 7.71595 5.6 8.02523V8.7719C5.6 9.08118 5.85072 9.3319 6.16 9.3319H6.90667ZM5.6 18.1052C5.6 18.4145 5.85072 18.6652 6.16 18.6652H6.90667C7.21595 18.6652 7.46667 18.4145 7.46667 18.1052V17.3586C7.46667 17.0493 7.21595 16.7986 6.90667 16.7986H6.16C5.85072 16.7986 5.6 17.0493 5.6 17.3586V18.1052Z" fill="#62EBFE"/>
</g>
</g>
<defs>
<filter id="filter0_d_20_3357" x="-1.9" y="-0.0347656" width="31.8" height="28.0666" filterUnits="userSpaceOnUse" color-interpolation-filters="sRGB">
<feFlood flood-opacity="0" result="BackgroundImageFix"/>
<feColorMatrix in="SourceAlpha" type="matrix" values="0 0 0 0 0 0 0 0 0 0 0 0 0 0 0 0 0 0 127 0" result="hardAlpha"/>
<feOffset/>
<feGaussianBlur stdDeviation="0.95"/>
<feComposite in2="hardAlpha" operator="out"/>
<feColorMatrix type="matrix" values="0 0 0 0 0.384314 0 0 0 0 0.921569 0 0 0 0 0.996078 0 0 0 1 0"/>
<feBlend mode="normal" in2="BackgroundImageFix" result="effect1_dropShadow_20_3357"/>
<feBlend mode="normal" in="SourceGraphic" in2="effect1_dropShadow_20_3357" result="shape"/>
</filter>
<clipPath id="clip0_20_3357">
<rect width="28" height="28" fill="white"/>
</clipPath>
</defs>
</svg>
