<svg width="36" height="36" viewBox="0 0 36 36" fill="none" xmlns="http://www.w3.org/2000/svg">
  <circle cx="18" cy="18" r="18" fill="#2E4954"/>
  <path d="M16.099 19.2197C17.0507 17.3542 18.88 16.2537 19.943 14.6029C21.0677 12.8716 20.4373 9.63711 17.2485 9.63711C15.5436 9.63711 14.5468 10.7815 14.0028 11.9757C13.8146 12.3888 13.3342 12.6099 12.9214 12.4213L11.0983 11.5881C10.7559 11.4317 10.5792 11.0442 10.7169 10.6939C11.7328 8.10945 14.0174 6 17.2361 6C20.1407 6 22.1307 7.43605 23.1442 9.23447C24.0094 10.7779 24.5161 13.6634 23.1812 15.8108C21.6981 18.1863 20.2767 18.9111 19.5104 20.4411C19.2449 20.9714 19.1163 21.3432 19.0853 22.6965C19.0758 23.1106 18.742 23.4474 18.3278 23.4474H16.247C15.8362 23.4474 15.4971 23.1173 15.4896 22.7066C15.4709 21.6926 15.5039 20.3851 16.099 19.2197ZM19.7205 28.8158C19.7205 30.2921 18.6081 31.5 17.2485 31.5C15.8889 31.5 14.7765 30.2921 14.7765 28.8158C14.7765 27.3395 15.8889 26.1316 17.2485 26.1316C18.6081 26.1316 19.7205 27.3395 19.7205 28.8158Z" fill="#C9CDD2"/>
</svg>
