<svg width="24" height="24" viewBox="0 0 24 24" fill="none" xmlns="http://www.w3.org/2000/svg">
<g clip-path="url(#clip0_74_3353)">
<rect width="24" height="24" rx="12" fill="#26282B"/>
<path fill-rule="evenodd" clip-rule="evenodd" d="M12 -0.00195312C5.37 -0.00195312 0 5.36805 0 11.998C0 17.308 3.435 21.793 8.205 23.383C8.805 23.488 9.03 23.128 9.03 22.813C9.03 22.528 9.015 21.583 9.015 20.578C6 21.133 5.22 19.843 4.98 19.168C4.845 18.823 4.26 17.758 3.75 17.473C3.33 17.248 2.73 16.693 3.735 16.678C4.68 16.663 5.355 17.548 5.58 17.908C6.66 19.723 8.385 19.213 9.075 18.898C9.18 18.118 9.495 17.593 9.84 17.293C7.17 16.993 4.38 15.958 4.38 11.368C4.38 10.063 4.845 8.98305 5.61 8.14305C5.49 7.84305 5.07 6.61305 5.73 4.96305C5.73 4.96305 6.735 4.64805 9.03 6.19305C9.99 5.92305 11.01 5.78805 12.03 5.78805C13.05 5.78805 14.07 5.92305 15.03 6.19305C17.325 4.63305 18.33 4.96305 18.33 4.96305C18.99 6.61305 18.57 7.84305 18.45 8.14305C19.215 8.98305 19.68 10.048 19.68 11.368C19.68 15.973 16.875 16.993 14.205 17.293C14.64 17.668 15.015 18.388 15.015 19.513C15.015 21.118 15 22.408 15 22.813C15 23.128 15.225 23.503 15.825 23.383C18.2072 22.5788 20.2772 21.0477 21.7437 19.0054C23.2101 16.9631 23.9993 14.5123 24 11.998C24 5.36805 18.63 -0.00195312 12 -0.00195312Z" fill="#454C53"/>
</g>
<defs>
<clipPath id="clip0_74_3353">
<rect width="24" height="24" rx="12" fill="white"/>
</clipPath>
</defs>
</svg>
