<svg width="92" height="38" viewBox="0 0 92 38" fill="none" xmlns="http://www.w3.org/2000/svg">
<path d="M39.2969 32.562V15.1934H43.1668V19.0995L42.8522 18.5332C43.2507 17.2537 43.8695 16.4659 44.7085 15.9625C45.5685 15.4591 46.5963 15.2073 47.7919 15.2073H48.7988V18.8571H47.32C46.1454 18.8571 45.2015 19.2241 44.4883 19.9583C43.7751 20.6715 43.4186 21.5746 43.4186 22.8751L43.4325 32.562H39.2969Z" fill="url(#paint0_linear_44_3008)"/>
<path d="M84.479 32.5657C82.5719 32.5657 81.105 31.9723 80.0478 30.9359C79.0114 29.8787 78.4931 28.3965 78.4931 26.4894V19.0269H75.5703V15.207H75.8528C76.6819 15.207 77.353 15.1712 77.8091 14.7359C78.2651 14.3006 78.4931 13.6683 78.4931 12.8392V11.5332H82.5665V15.207H86.5019V19.0399L82.5665 19.0269V26.2718C82.5665 26.8314 82.6597 27.3082 82.8463 27.7021C83.0536 28.0959 83.3645 28.3965 83.7791 28.6038C84.2144 28.8111 84.7786 29.0504 85.4419 29.0504C85.587 29.0504 85.7528 29.0401 85.9394 29.0193C86.1467 28.9986 86.3436 28.9779 86.5302 28.9572V32.4397C86.24 32.4811 85.9083 32.5226 85.5352 32.5641C85.1625 32.5656 84.79 32.5657 84.479 32.5657Z" fill="url(#paint1_linear_44_3008)"/>
<path d="M69.4746 32.565L69.475 15.1963H73.5428V32.565H69.4746Z" fill="url(#paint2_linear_44_3008)"/>
<path d="M67.8091 15.1963L63.7962 15.1963L57.3015 32.565H61.468L67.8091 15.1963Z" fill="url(#paint3_linear_44_3008)"/>
<path d="M50.4297 15.1963H54.4781L58.0828 25.869L55.8574 31.7509L53.1933 23.5344L50.4297 15.1963Z" fill="url(#paint4_linear_44_3008)"/>
<path d="M23.4248 5.40234C25.3794 5.40234 27.1932 5.74383 28.8652 6.42676C30.5371 7.10967 31.9971 8.06359 33.2451 9.28809C34.4932 10.4891 35.4587 11.914 36.1416 13.5625C36.848 15.2109 37.2011 17.0123 37.2012 18.9668C37.2012 20.8978 36.8481 22.7001 36.1416 24.3721C35.4352 26.0202 34.4578 27.4563 33.21 28.6807C31.9618 29.9052 30.5011 30.8591 28.8291 31.542C27.1807 32.2249 25.3793 32.5664 23.4248 32.5664C21.4938 32.5664 19.6925 32.2249 18.0205 31.542C17.2446 31.2251 16.5147 30.8496 15.8301 30.416C17.2082 29.5626 18.5498 28.5308 19.7783 27.4619C19.8166 27.4792 19.854 27.4988 19.8926 27.5156C20.9758 27.963 22.1532 28.1865 23.4248 28.1865C24.72 28.1865 25.9099 27.9631 26.9932 27.5156C28.0763 27.0447 29.0178 26.3964 29.8184 25.5723C30.6426 24.7481 31.2666 23.771 31.6904 22.6406C32.1379 21.5103 32.3623 20.2856 32.3623 18.9668C32.3623 17.6482 32.1378 16.4358 31.6904 15.3291C31.2665 14.1987 30.6426 13.2207 29.8184 12.3965C29.0179 11.549 28.0761 10.9015 26.9932 10.4541C25.9099 10.0067 24.72 9.7832 23.4248 9.7832C22.1532 9.78322 20.9758 10.0067 19.8926 10.4541C18.8094 10.9015 17.8554 11.5488 17.0312 12.3965C16.2306 13.2207 15.6066 14.1987 15.1592 15.3291C14.7119 16.4358 14.4883 17.6483 14.4883 18.9668C14.4883 20.2855 14.7118 21.5103 15.1592 22.6406C15.6066 23.7709 16.2307 24.7481 17.0312 25.5723C17.2574 25.7985 17.4945 26.0104 17.7402 26.21C16.3698 27.1558 15.0623 27.9972 14.1338 28.5674L13.6123 28.6523C12.3779 27.434 11.4091 26.0078 10.708 24.3721C10.0251 22.7001 9.68359 20.8978 9.68359 18.9668C9.68362 17.0124 10.0251 15.2108 10.708 13.5625C11.3909 11.9141 12.3565 10.4774 13.6045 9.25293C14.8526 8.02836 16.3133 7.08614 17.9854 6.42676C19.6572 5.74393 21.4704 5.40236 23.4248 5.40234Z" fill="url(#paint5_linear_44_3008)"/>
<rect x="69.4746" y="9.49805" width="4.06808" height="4.06808" fill="url(#paint6_linear_44_3008)"/>
<path d="M8.11922 19.7676C8.11922 19.7676 3.08252 25.0913 6.5911 28.8295C6.5911 28.8295 8.91099 31.8875 16.0411 27.8103C16.0411 27.8103 22.8295 23.7823 25.2664 20.1751C25.2664 20.1751 16.2242 25.6605 14.63 26.0542C14.63 26.0542 9.65635 27.9164 7.86708 26.5915C7.86708 26.5915 6.26024 25.5232 6.69942 23.3033C6.90585 22.2585 7.60731 20.9524 8.11784 19.769L8.11922 19.7676Z" fill="url(#paint7_linear_44_3008)"/>
<defs>
<linearGradient id="paint0_linear_44_3008" x1="56.7925" y1="9.20443" x2="56.7925" y2="30.4421" gradientUnits="userSpaceOnUse">
<stop stop-color="#F7FBFF"/>
<stop offset="1" stop-color="#DDE7F2"/>
</linearGradient>
<linearGradient id="paint1_linear_44_3008" x1="57.3303" y1="9.37215" x2="57.3303" y2="30.3606" gradientUnits="userSpaceOnUse">
<stop stop-color="#F7FBFF"/>
<stop offset="1" stop-color="#DDE7F2"/>
</linearGradient>
<linearGradient id="paint2_linear_44_3008" x1="57.1867" y1="9.36124" x2="57.1867" y2="30.3497" gradientUnits="userSpaceOnUse">
<stop stop-color="#F7FBFF"/>
<stop offset="1" stop-color="#DDE7F2"/>
</linearGradient>
<linearGradient id="paint3_linear_44_3008" x1="64.0299" y1="8.98255" x2="64.0299" y2="30.2025" gradientUnits="userSpaceOnUse">
<stop stop-color="#F7FBFF"/>
<stop offset="1" stop-color="#DDE7F2"/>
</linearGradient>
<linearGradient id="paint4_linear_44_3008" x1="53.2821" y1="9.2646" x2="53.2821" y2="29.9566" gradientUnits="userSpaceOnUse">
<stop stop-color="#F7FBFF"/>
<stop offset="1" stop-color="#DDE7F2"/>
</linearGradient>
<linearGradient id="paint5_linear_44_3008" x1="61.648" y1="6.09119" x2="61.648" y2="28.5179" gradientUnits="userSpaceOnUse">
<stop stop-color="#F7FBFF"/>
<stop offset="1" stop-color="#DDE7F2"/>
</linearGradient>
<linearGradient id="paint6_linear_44_3008" x1="71.1122" y1="8.05104" x2="71.1122" y2="13.0988" gradientUnits="userSpaceOnUse">
<stop stop-color="#40E8FF"/>
<stop offset="1" stop-color="#00B6CF"/>
</linearGradient>
<linearGradient id="paint7_linear_44_3008" x1="13.3663" y1="16.1527" x2="13.3663" y2="28.7628" gradientUnits="userSpaceOnUse">
<stop stop-color="#40E8FF"/>
<stop offset="1" stop-color="#00B6CF"/>
</linearGradient>
</defs>
</svg>
