<svg width="34" height="34" viewBox="0 0 34 34" fill="none" xmlns="http://www.w3.org/2000/svg">
<g clip-path="url(#clip0_20_3368)">
<g filter="url(#filter0_d_20_3368)">
<g filter="url(#filter1_d_20_3368)">
<path fill-rule="evenodd" clip-rule="evenodd" d="M11.7104 21.6605C11.9514 21.6743 12.1849 21.7495 12.3887 21.8789C12.5925 22.0084 12.7599 22.1877 12.8749 22.4L15.5552 27.3484C15.7815 27.7669 15.8869 28.2401 15.8594 28.715C15.832 29.19 15.673 29.6479 15.4001 30.0376C15.1272 30.4273 14.7512 30.7333 14.3142 30.9214C13.8772 31.1095 13.3965 31.1722 12.9259 31.1026L7.35838 30.2781C7.11952 30.2426 6.89369 30.1466 6.70234 29.9993C6.51099 29.852 6.36048 29.6582 6.26509 29.4364C6.16971 29.2145 6.13262 28.972 6.15735 28.7317C6.18208 28.4915 6.2678 28.2616 6.40638 28.0638L7.28897 26.803L7.04247 25.409C7.01005 25.2258 7.01405 25.0379 7.05425 24.8562C7.09445 24.6745 7.17006 24.5025 7.27675 24.35C7.38345 24.1975 7.51914 24.0676 7.67607 23.9676C7.83301 23.8675 8.00811 23.7994 8.19138 23.7671L9.5868 23.522L10.4694 22.2612C10.6078 22.0634 10.7945 21.9043 11.0117 21.7989C11.2288 21.6935 11.4694 21.6454 11.7104 21.6591V21.6605ZM20.702 21.6265C20.8873 21.5267 21.0926 21.4694 21.3028 21.4589C21.5131 21.4483 21.7231 21.4848 21.9175 21.5656L22.0818 21.6463L23.4135 22.4156L24.782 22.0487C25.1172 21.9588 25.4738 21.9951 25.784 22.1508C26.0943 22.3064 26.3366 22.5705 26.465 22.893L26.5174 23.0503L26.8843 24.4188L28.216 25.188C28.4118 25.301 28.5778 25.4592 28.7 25.6494C28.8222 25.8396 28.8971 26.0563 28.9184 26.2813C28.9398 26.5064 28.907 26.7333 28.8227 26.9431C28.7385 27.1529 28.6052 27.3395 28.4341 27.4873L28.2882 27.5978L23.592 30.6974C23.2107 30.9492 22.769 31.0944 22.3127 31.118C21.8564 31.1417 21.4021 31.0429 20.9968 30.832C20.5915 30.621 20.25 30.3055 20.0076 29.9182C19.7652 29.5309 19.6308 29.0858 19.6182 28.6291L19.6225 28.4053L19.9596 22.7882C19.9742 22.5474 20.0501 22.3143 20.18 22.111C20.3099 21.9077 20.4896 21.7409 20.702 21.6265ZM17.003 2.83301C18.5059 2.83301 19.9473 3.43003 21.01 4.49274C22.0727 5.55544 22.6697 6.99678 22.6697 8.49967V9.91634C22.6697 11.6362 23.3809 13.1279 24.3215 14.6678L25.3642 16.3183C25.5059 16.5449 25.6405 16.7645 25.7609 16.9657C26.2142 17.7321 26.6505 18.5807 26.8772 19.4888C27.0316 20.1195 27.1236 20.7639 27.152 21.4126C26.8001 21.0613 26.3619 20.8088 25.8815 20.6805C25.401 20.5521 24.8953 20.5525 24.415 20.6816L23.6146 20.8955L22.7901 20.4195C22.3718 20.1781 21.8987 20.0477 21.4158 20.0406C20.9329 20.0335 20.4562 20.1499 20.031 20.3789C19.6057 20.6078 19.246 20.9417 18.9861 21.3487C18.7262 21.7558 18.5746 22.2225 18.5458 22.7046L18.2086 28.3217C18.1789 28.8104 18.2398 29.2907 18.38 29.7426L17.999 29.7497H17.4238C17.3161 29.7497 17.2094 29.7478 17.1036 29.744C17.4153 28.7382 17.319 27.6303 16.8005 26.6741L14.1215 21.7257C13.8916 21.301 13.5569 20.9421 13.1493 20.6831C12.7416 20.4242 12.2745 20.2737 11.7923 20.246C11.3102 20.2183 10.8289 20.3144 10.3943 20.525C9.95973 20.7356 9.58617 21.0538 9.30913 21.4494L8.76372 22.2286L8.29622 22.3108C8.2485 21.7633 8.2599 21.2124 8.33022 20.6674C8.38263 20.2637 8.45205 19.8642 8.54555 19.4888C8.82605 18.3668 9.30347 17.4218 9.75963 16.6271L10.3787 15.5788C10.968 14.563 11.3364 13.7725 11.3364 12.7497V8.49967C11.3364 6.99678 11.9334 5.55544 12.9961 4.49274C14.0588 3.43003 15.5002 2.83301 17.003 2.83301ZM14.9659 11.0185L13.8014 11.5993C14.1187 12.4451 14.6117 13.237 15.0721 13.866L15.3611 14.2471L15.6218 14.5658L15.7365 14.699L16.0907 14.4993L16.5568 14.2202C16.8061 14.0658 17.0781 13.8915 17.3586 13.7003C18.2143 13.1166 19.094 12.4111 19.7131 11.6787L16.4321 10.857C15.9398 10.734 15.4197 10.7913 14.9659 11.0185Z" fill="#62EBFE"/>
</g>
</g>
</g>
<defs>
<filter id="filter0_d_20_3368" x="4.2499" y="0.933008" width="26.5749" height="32.0969" filterUnits="userSpaceOnUse" color-interpolation-filters="sRGB">
<feFlood flood-opacity="0" result="BackgroundImageFix"/>
<feColorMatrix in="SourceAlpha" type="matrix" values="0 0 0 0 0 0 0 0 0 0 0 0 0 0 0 0 0 0 127 0" result="hardAlpha"/>
<feOffset/>
<feGaussianBlur stdDeviation="0.95"/>
<feComposite in2="hardAlpha" operator="out"/>
<feColorMatrix type="matrix" values="0 0 0 0 0.384314 0 0 0 0 0.921569 0 0 0 0 0.996078 0 0 0 1 0"/>
<feBlend mode="normal" in2="BackgroundImageFix" result="effect1_dropShadow_20_3368"/>
<feBlend mode="normal" in="SourceGraphic" in2="effect1_dropShadow_20_3368" result="shape"/>
</filter>
<filter id="filter1_d_20_3368" x="2.1499" y="2.83301" width="30.7749" height="36.2969" filterUnits="userSpaceOnUse" color-interpolation-filters="sRGB">
<feFlood flood-opacity="0" result="BackgroundImageFix"/>
<feColorMatrix in="SourceAlpha" type="matrix" values="0 0 0 0 0 0 0 0 0 0 0 0 0 0 0 0 0 0 127 0" result="hardAlpha"/>
<feOffset dy="4"/>
<feGaussianBlur stdDeviation="2"/>
<feComposite in2="hardAlpha" operator="out"/>
<feColorMatrix type="matrix" values="0 0 0 0 0 0 0 0 0 0 0 0 0 0 0 0 0 0 0.25 0"/>
<feBlend mode="normal" in2="BackgroundImageFix" result="effect1_dropShadow_20_3368"/>
<feBlend mode="normal" in="SourceGraphic" in2="effect1_dropShadow_20_3368" result="shape"/>
</filter>
<clipPath id="clip0_20_3368">
<rect width="34" height="34" fill="white"/>
</clipPath>
</defs>
</svg>
