<svg width="64" height="64" viewBox="0 0 64 64" fill="none" xmlns="http://www.w3.org/2000/svg">
<g clip-path="url(#clip0_2429_9974)">
<path fill-rule="evenodd" clip-rule="evenodd" d="M17.9314 37.2374C17.9314 34.9301 17.9314 33.7785 18.3711 32.8824C18.7765 32.0702 19.4349 31.4118 20.2471 31.0064C20.737 30.7593 21.3107 30.6504 22.1189 30.6044V26.375C22.1189 25.2752 22.3355 24.1861 22.7564 23.17C23.1773 22.1539 23.7942 21.2307 24.5719 20.453C25.3495 19.6753 26.2728 19.0584 27.2889 18.6375C28.305 18.2166 29.3941 18 30.4939 18C31.5937 18 32.6827 18.2166 33.6988 18.6375C34.7149 19.0584 35.6382 19.6753 36.4159 20.453C37.1936 21.2307 37.8105 22.1539 38.2314 23.17C38.6523 24.1861 38.8689 25.2752 38.8689 26.375V30.6044C39.6771 30.6504 40.2507 30.7593 40.7407 31.0064C41.5528 31.4118 42.2112 32.0702 42.6167 32.8824C43.0606 33.7659 43.0606 34.9175 43.0606 37.2374V40.6711C43.0606 42.9784 43.0606 46.1822 42.6167 47.0783C42.2112 47.8905 41.5528 48.5489 40.7407 48.9543C39.8571 49.394 38.7056 49.394 36.3857 49.394H24.5769C22.2696 49.394 21.1181 49.394 20.2219 48.9543C19.4098 48.5489 18.7514 47.8905 18.3459 47.0783C17.9063 46.1948 17.9062 42.991 17.9062 40.6711V37.2374H17.9314ZM34.6814 30.5792V26.3917C34.6814 25.2812 34.2402 24.216 33.4549 23.4307C32.6696 22.6454 31.6045 22.2042 30.4939 22.2042C29.3833 22.2042 28.3182 22.6454 27.5329 23.4307C26.7476 24.216 26.3064 25.2812 26.3064 26.3917V30.5792H34.6814Z" fill="#93A5B9" fill-opacity="0.7"/>
<g filter="url(#filter0_d_2429_9974)">
<path d="M48.9443 55.0643C49.1207 55.4875 48.9512 57.0905 48.0161 57.4621C47.081 57.8337 45.8863 57.4621 45.8863 57.4621L43.7184 53.1263L39.9717 56.8731V39.9512L51.4493 51.4288H47.173C47.3829 51.8312 48.7203 54.5265 48.9443 55.0643Z" fill="white"/>
<path fill-rule="evenodd" clip-rule="evenodd" d="M40.9775 42.3789V54.4456L43.9942 51.4289L46.5081 56.4567C46.5081 56.4567 47.1882 56.6737 47.5137 56.4567C47.8391 56.2397 48.1629 55.8027 48.0164 55.4511C47.3249 53.7915 45.5025 50.4234 45.5025 50.4234H49.022L40.9775 42.3789Z" fill="#545454"/>
</g>
</g>
<defs>
<filter id="filter0_d_2429_9974" x="38.1617" y="39.1467" width="15.0975" height="21.2958" filterUnits="userSpaceOnUse" color-interpolation-filters="sRGB">
<feFlood flood-opacity="0" result="BackgroundImageFix"/>
<feColorMatrix in="SourceAlpha" type="matrix" values="0 0 0 0 0 0 0 0 0 0 0 0 0 0 0 0 0 0 127 0" result="hardAlpha"/>
<feOffset dy="1.00556"/>
<feGaussianBlur stdDeviation="0.905"/>
<feColorMatrix type="matrix" values="0 0 0 0 0 0 0 0 0 0 0 0 0 0 0 0 0 0 0.65 0"/>
<feBlend mode="normal" in2="BackgroundImageFix" result="effect1_dropShadow_2429_9974"/>
<feBlend mode="normal" in="SourceGraphic" in2="effect1_dropShadow_2429_9974" result="shape"/>
</filter>
<clipPath id="clip0_2429_9974">
<rect width="64" height="64" fill="white"/>
</clipPath>
</defs>
</svg>
