<svg width="14" height="8" viewBox="0 0 14 8" fill="none" xmlns="http://www.w3.org/2000/svg">
<path d="M6.64471 5.23074L1.69471 0.280745C1.50611 0.098587 1.25351 -0.00220728 0.991311 7.10487e-05C0.729114 0.00234938 0.478301 0.107518 0.292893 0.292926C0.107485 0.478334 0.00231622 0.729147 3.78026e-05 0.991343C-0.00224062 1.25354 0.0985538 1.50614 0.280712 1.69475L5.93771 7.35174C6.12524 7.53922 6.37955 7.64453 6.64471 7.64453C6.90988 7.64453 7.16418 7.53922 7.35171 7.35174L13.0087 1.69475C13.1909 1.50614 13.2917 1.25354 13.2894 0.991343C13.2871 0.729147 13.1819 0.478334 12.9965 0.292926C12.8111 0.107518 12.5603 0.00234938 12.2981 7.10487e-05C12.0359 -0.00220728 11.7833 0.098587 11.5947 0.280745L6.64471 5.23074Z" fill="#6D7B86"/>
</svg>
