<svg width="30" height="30" viewBox="0 0 30 30" fill="none" xmlns="http://www.w3.org/2000/svg">
<path d="M19.0239 15L15.2162 18.7248C15.076 18.8667 14.9985 19.0568 15.0003 19.2541C15.002 19.4514 15.0829 19.6401 15.2255 19.7796C15.3682 19.9191 15.5611 19.9983 15.7628 20C15.9645 20.0017 16.1588 19.9258 16.3039 19.7888L20.6554 15.532C20.7996 15.3909 20.8806 15.1995 20.8806 15C20.8806 14.8005 20.7996 14.6091 20.6554 14.468L16.3039 10.2112C16.1588 10.0742 15.9645 9.99831 15.7628 10C15.5611 10.0017 15.3682 10.0809 15.2255 10.2204C15.0829 10.3599 15.002 10.5486 15.0003 10.7459C14.9985 10.9432 15.076 11.1333 15.2162 11.2752L19.0239 15V15Z" fill="#6D7B86"/>
<path d="M13.143 15L9.3353 18.7248C9.19518 18.8667 9.11765 19.0568 9.1194 19.2541C9.12115 19.4514 9.20205 19.6401 9.34468 19.7796C9.4873 19.9191 9.68023 19.9983 9.88192 20C10.0836 20.0017 10.2779 19.9258 10.423 19.7888L14.7745 15.532C14.9187 15.3909 14.9998 15.1995 14.9998 15C14.9998 14.8005 14.9187 14.6091 14.7745 14.468L10.423 10.2112C10.2779 10.0742 10.0836 9.99831 9.88192 10C9.68023 10.0017 9.4873 10.0809 9.34468 10.2204C9.20205 10.3599 9.12115 10.5486 9.1194 10.7459C9.11765 10.9432 9.19518 11.1333 9.3353 11.2752L13.143 15V15Z" fill="#6D7B86"/>
</svg>
