<svg width="36" height="36" viewBox="0 0 36 36" fill="none" xmlns="http://www.w3.org/2000/svg">
<circle cx="18" cy="18" r="18" fill="#262C3A"/>
<path d="M18.0012 29.8511C16.6122 29.8511 15.3113 29.5874 14.0985 29.0599C12.8858 28.5324 11.8301 27.8194 10.9315 26.9207C10.0328 26.0221 9.31979 24.9664 8.79232 23.7537C8.26485 22.5409 8.00074 21.2397 8 19.8499C8 19.535 8.10668 19.2713 8.32004 19.0587C8.5334 18.846 8.79714 18.7394 9.11125 18.7386C9.42536 18.7379 9.68947 18.8446 9.90357 19.0587C10.1177 19.2728 10.224 19.5365 10.2225 19.8499C10.2225 22.0168 10.9774 23.8552 12.4872 25.365C13.997 26.8748 15.835 27.6293 18.0012 27.6286C20.1674 27.6279 22.0058 26.8733 23.5164 25.365C25.0269 23.8567 25.7814 22.0183 25.78 19.8499C25.7785 17.6815 25.0239 15.8435 23.5164 14.3359C22.0088 12.8283 20.1704 12.0734 18.0012 12.0711H17.8345L18.7791 13.0157C19.0014 13.2379 19.108 13.4972 19.0991 13.7936C19.0903 14.0899 18.9836 14.3492 18.7791 14.5714C18.5569 14.7937 18.2931 14.9096 17.9879 14.9193C17.6827 14.9289 17.4186 14.8222 17.1956 14.5992L14.3341 11.7378C14.1119 11.5155 14.0007 11.2562 14.0007 10.9599C14.0007 10.6636 14.1119 10.4043 14.3341 10.182L17.1956 7.32055C17.4178 7.0983 17.6819 6.99162 17.9879 7.00051C18.2939 7.0094 18.5576 7.12534 18.7791 7.34833C18.9828 7.57058 19.0895 7.82987 19.0991 8.12621C19.1088 8.42254 19.0021 8.68183 18.7791 8.90408L17.8345 9.84864H18.0012C19.3903 9.84864 20.6916 10.1127 21.905 10.641C23.1185 11.1692 24.1742 11.8822 25.0721 12.7801C25.97 13.678 26.683 14.7337 27.2113 15.9472C27.7395 17.1607 28.0032 18.4616 28.0025 19.8499C28.0017 21.2382 27.738 22.5395 27.2113 23.7537C26.6845 24.9679 25.9715 26.0236 25.0721 26.9207C24.1727 27.8179 23.117 28.5309 21.905 29.0599C20.693 29.5888 19.3918 29.8526 18.0012 29.8511Z" fill="#93A5B9" fill-opacity="0.7"/>
<path d="M17.9951 6.75098C18.3669 6.76178 18.6908 6.905 18.9561 7.17188L18.9639 7.17969C19.207 7.44508 19.337 7.76119 19.3486 8.11816C19.3592 8.44227 19.256 8.73178 19.0498 8.97852L18.9561 9.08105L18.4277 9.6084C19.6907 9.65738 20.8838 9.92412 22.0049 10.4121C23.2458 10.9523 24.3281 11.6826 25.249 12.6035C26.1699 13.5245 26.9003 14.6068 27.4404 15.8477C27.9829 17.094 28.2536 18.4289 28.2529 19.8496C28.2522 21.2704 27.9814 22.6064 27.4404 23.8535C26.9017 25.0952 26.1715 26.1774 25.249 27.0977C24.3267 28.0177 23.2442 28.7482 22.0049 29.2891C20.9153 29.7646 19.7564 30.0308 18.5303 30.0889L18.001 30.1016C16.5795 30.1015 15.2447 29.8308 13.999 29.2891C12.7588 28.7496 11.6765 28.0193 10.7549 27.0977C9.83325 26.176 9.10293 25.0937 8.56348 23.8535C8.02165 22.6078 7.75076 21.2719 7.75 19.8496L7.75586 19.7109C7.7844 19.3912 7.91362 19.111 8.14355 18.8818C8.40574 18.6206 8.73356 18.4892 9.11035 18.4883C9.48812 18.4874 9.81704 18.6189 10.0801 18.8818C10.3428 19.1446 10.4741 19.4727 10.4727 19.8496L10.4814 20.2402C10.567 22.1723 11.2933 23.8177 12.6641 25.1885C14.1261 26.6505 15.9002 27.3796 18.001 27.3789C20.102 27.3782 21.8769 26.6492 23.3398 25.1885C24.8026 23.7279 25.5317 21.9528 25.5303 19.8496C25.5287 17.7464 24.7995 15.9724 23.3398 14.5127C21.9853 13.1581 20.3595 12.4334 18.4512 12.334L18.9561 12.8389C19.2236 13.1065 19.3596 13.4312 19.3486 13.8008C19.3379 14.1584 19.2071 14.4747 18.9629 14.7402L18.9561 14.748C18.6904 15.0137 18.3668 15.1572 17.9961 15.1689C17.6194 15.1808 17.2886 15.0463 17.0186 14.7764L14.1572 11.9141C13.8915 11.6482 13.751 11.3268 13.751 10.96C13.751 10.593 13.8912 10.2709 14.1572 10.0049L17.0186 7.14355C17.288 6.87412 17.6183 6.74004 17.9951 6.75098Z" stroke="#93A5B9" stroke-opacity="0.7" stroke-width="0.5"/>
</svg>
