<svg xmlns="http://www.w3.org/2000/svg" width="139" height="139" fill="none" viewBox="0 0 139 139"><rect width="138.462" height="138.462" fill="url(#a)" rx="34.615"/><path fill="url(#b)" d="M73.533 29.5q8.557 0 15.877 2.99t12.783 8.35q5.465 5.259 8.454 12.475 3.093 7.218 3.093 15.775 0 8.454-3.093 15.773-3.093 7.217-8.557 12.578t-12.783 8.351q-7.217 2.99-15.774 2.99-8.454 0-15.773-2.99a40.6 40.6 0 0 1-6.396-3.29c4.02-2.489 7.933-5.5 11.517-8.617q.17.078.343.154 4.742 1.959 10.31 1.959 5.67 0 10.411-1.959 4.744-2.062 8.248-5.67 3.609-3.609 5.464-8.558 1.96-4.948 1.96-10.721t-1.96-10.62q-1.855-4.948-5.464-8.557a23.6 23.6 0 0 0-8.248-5.67q-4.742-1.959-10.412-1.959-5.567 0-10.31 1.96a24.7 24.7 0 0 0-8.35 5.67q-3.505 3.608-5.464 8.557-1.959 4.845-1.959 10.619 0 5.773 1.96 10.721 1.957 4.95 5.463 8.558a27 27 0 0 0 2.063 1.859A246 246 0 0 1 46.417 97.1l-1.531.249q-5.4-5.332-8.467-12.487-2.99-7.32-2.99-15.773 0-8.557 2.99-15.775 2.99-7.216 8.454-12.578 5.465-5.36 12.784-8.248 7.32-2.99 15.876-2.989"/><path fill="url(#c)" d="M28.856 71.414s-14.7 15.536-4.46 26.444c0 0 6.77 8.924 27.58-2.974 0 0 19.812-11.754 26.924-22.28 0 0-26.39 16.007-31.043 17.156 0 0-14.515 5.434-19.737 1.568 0 0-4.69-3.118-3.408-9.596.602-3.049 2.65-6.86 4.14-10.314z"/><defs><linearGradient id="a" x1="69.231" x2="69.231" y1="138.462" y2="0" gradientUnits="userSpaceOnUse"><stop stop-color="#171a26"/><stop offset="1" stop-color="#13213b"/></linearGradient><linearGradient id="b" x1="185.089" x2="185.089" y1="31.511" y2="96.966" gradientUnits="userSpaceOnUse"><stop stop-color="#f7fbff"/><stop offset="1" stop-color="#dde7f2"/></linearGradient><linearGradient id="c" x1="44.169" x2="44.169" y1="60.865" y2="97.664" gradientUnits="userSpaceOnUse"><stop stop-color="#40e8ff"/><stop offset="1" stop-color="#00b6cf"/></linearGradient></defs></svg>